<svg width="1400" height="380" viewBox="0 0 1400 380" xmlns="http://www.w3.org/2000/svg" role="img" aria-label="MetaClaw ecosystem repo map">
  <defs>
    <linearGradient id="bg" x1="0" y1="0" x2="1" y2="1">
      <stop offset="0%" stop-color="#0a1325"/>
      <stop offset="45%" stop-color="#10264a"/>
      <stop offset="100%" stop-color="#19375f"/>
    </linearGradient>
    <radialGradient id="halo" cx="0.1" cy="0.7" r="0.55">
      <stop offset="0%" stop-color="#34d399" stop-opacity="0.26"/>
      <stop offset="100%" stop-color="#34d399" stop-opacity="0"/>
    </radialGradient>
    <filter id="shadow" x="-20%" y="-20%" width="140%" height="140%">
      <feDropShadow dx="0" dy="8" stdDeviation="8" flood-color="#020617" flood-opacity="0.35"/>
    </filter>
    <marker id="arrowFlow" viewBox="0 0 10 10" refX="9" refY="5" markerWidth="8" markerHeight="8" orient="auto-start-reverse">
      <path d="M 0 0 L 10 5 L 0 10 z" fill="#bfdbfe"/>
    </marker>
    <style>
      .h { font: 700 43px 'Avenir Next', 'Segoe UI', sans-serif; fill: #f8fafc; }
      .name { font: 700 27px 'Avenir Next', 'Segoe UI', sans-serif; fill: #f8fafc; }
      .desc { font: 600 18px 'Avenir Next', 'Segoe UI', sans-serif; fill: #f1f5f9; }
      .meta { font: 500 14px 'Avenir Next', 'Segoe UI', sans-serif; fill: #e2e8f0; }
      .flow { stroke: #bfdbfe; stroke-width: 2.2; fill: none; marker-end: url(#arrowFlow); opacity: 0.9; }
    </style>
  </defs>

  <rect width="1400" height="380" fill="url(#bg)"/>
  <rect width="1400" height="380" fill="url(#halo)"/>

  <rect x="54" y="58" width="1292" height="274" rx="26" fill="#011634" opacity="0.95" filter="url(#shadow)"/>
  <text x="118" y="122" class="h">Ecosystem Repos</text>

  <rect x="118" y="146" width="284" height="154" rx="18" fill="#2b4ec2"/>
  <text x="138" y="184" class="name">metaclaw</text>
  <text x="138" y="212" class="desc">Engine core</text>
  <text x="138" y="236" class="meta">Compiler + RuntimeAdapter</text>
  <text x="138" y="258" class="meta">Policy, capsule, lifecycle state</text>

  <rect x="420" y="146" width="284" height="154" rx="18" fill="#1a7773"/>
  <text x="440" y="184" class="name">metaclaw-examples</text>
  <text x="440" y="212" class="desc">Runnable templates</text>
  <text x="440" y="236" class="meta">End-to-end starter projects</text>
  <text x="440" y="258" class="meta">Reference bot implementations</text>

  <rect x="722" y="146" width="284" height="154" rx="18" fill="#aa5511"/>
  <text x="742" y="184" class="name">metaclaw-skills</text>
  <text x="742" y="212" class="desc">Reusable capabilities</text>
  <text x="742" y="236" class="meta">SKILL.md + capability.contract</text>
  <text x="742" y="258" class="meta">Versioned reusable modules</text>

  <rect x="1024" y="146" width="284" height="154" rx="18" fill="#6d3ace"/>
  <text x="1044" y="184" class="name">metaclaw-registry</text>
  <text x="1044" y="212" class="desc">Publish/distribution API</text>
  <text x="1044" y="236" class="meta">OCI metadata index + search</text>
  <text x="1044" y="258" class="meta">Digest and signature verification</text>

  <path d="M 402 130 C 412 130, 416 130, 420 130" class="flow"/>
  <path d="M 704 130 C 714 130, 718 130, 722 130" class="flow"/>
  <path d="M 1006 130 C 1016 130, 1020 130, 1024 130" class="flow"/>
  <path d="M 1166 314 C 920 352, 520 352, 260 314" class="flow"/>
</svg>
